# xmcd
#
# Track frame offsets:
#	150
#	15980
#	26555
#	45170
#	57095
#	66820
#	86810
#	98990
#	106567
#	120485
#	139150
#	156402
#	177042
#	187175
#	203187
#	218885
#	232582
#
# Disc length: 3312
#
# Revision: 12
# Processed by: cddbd v1.5.1PL0 Copyright (c) Steve Scherf et al.
# Submitted via: CDex 1.40Release
# Normalized: r11:DSETVAR1,TDELIM( - )
#
DISCID=d70cee11
DTITLE=Various Artist - I Am Sam
DYEAR=2001
DGENRE=Soundtrack
TTITLE0=Aimee Mann and Michael Penn - Two Of Us
TTITLE1=Sarah McLachlan - Blackbird
TTITLE2=Rufus Wainwright - Across The Universe
TTITLE3=Wallflowers, The - I'm Looking Through You
TTITLE4=Eddie Vedder - You've Got To Hide Your Love Away
TTITLE5=Ben Harper - Strawberry Fields Forever
TTITLE6=Sheryl Crow - Mother Nature's Son
TTITLE7=Ben Folds - Golden Slumbers
TTITLE8=Vines, The - I'm Only Sleeping
TTITLE9=Stereophonics - Don't Let Me Down
TTITLE10=Black Crowes, The - Lucy In the Sky With Diamonds
TTITLE11=Chocolate Genius - Julia
TTITLE12=Heather Nova - We Can Work It Out
TTITLE13=Howie Day - Help!
TTITLE14=Paul Westerberg - Nowhere Man
TTITLE15=Grandaddy - Revolution
TTITLE16=Nick Cave - Let It Be
EXTD=YEAR: 2001 ID3G: 24
EXTT0=
EXTT1=
EXTT2=
EXTT3=
EXTT4=
EXTT5=
EXTT6=
EXTT7=
EXTT8=
EXTT9=
EXTT10=
EXTT11=
EXTT12=
EXTT13=
EXTT14=
EXTT15=
EXTT16=
PLAYORDER=
